#!OML:ASF X:\für Bonn\!DataBase\2005_08_11_Bastian_Final\c3d\Bastian.ASF
:FULLY-SPECIFIED
:DEGREES
80
root -21.9931 17.5994 -0.105912 144.281 -75.5892 -149.643
lowerback 3.97135 4.81849 8.60522
upperback 3.11174 6.61556 -2.31206
thorax 2.29361 3.51967 -7.28747
lowerneck -13.6693 -6.1311 2.12866
upperneck -0.453824 -8.85145 5.0559
head 2.34978 -4.30168 0.708482
rclavicle -3.11098e-014 4.77083e-014
rhumerus 67.0921 3.57027 -33.4584
rradius 29.2371
rwrist -8.8889
rhand -8.92545 -4.27124
rfingers 7.12502
rthumb 17.0182 -33.5458
lclavicle -3.11098e-014 4.77083e-014
lhumerus -21.3374 -15.1856 86.4304
lradius 11.2746
lwrist 12.1306
lhand -11.4716 -5.63973
lfingers 7.12502
lthumb 14.5662 23.8288
rfemur -0.195536 5.44213 25.3481
rtibia 27.7607
rfoot -12.661 -9.21377
rtoes -12.4069
lfemur 2.27632 5.15588 -13.1893
ltibia 24.4705
lfoot -13.701 1.37066
ltoes -13.1348
81
root -22.0015 17.5987 -0.103686 143.594 -75.8396 -148.94
lowerback 3.95912 4.89343 8.56624
upperback 3.08517 6.71582 -2.40325
thorax 2.29873 3.57042 -7.35979
lowerneck -13.6322 -6.29254 2.13691
upperneck -0.587185 -9.06974 5.2047
head 2.30838 -4.41176 0.744301
rclavicle -5.4964e-014 9.54166e-015
rhumerus 67.1286 3.43967 -32.3465
rradius 28.3608
rwrist -9.82479
rhand -7.91025 -4.91511
rfingers 7.12502
rthumb 17.9952 -34.1026
lclavicle -5.4964e-014 9.54166e-015
lhumerus -21.3447 -14.894 86.1992
lradius 10.9183
lwrist 11.4726
lhand -11.3351 -5.46507
lfingers 7.12502
lthumb 14.6976 23.994
rfemur -0.138186 5.35607 25.3687
rtibia 27.7398
rfoot -12.6845 -9.42763
rtoes -12.4619
lfemur 2.21213 5.15 -13.1576
ltibia 24.5274
lfoot -13.6766 1.10633
ltoes -13.3134
82
root -22.0108 17.5985 -0.101999 142.899 -76.0889 -148.231
lowerback 3.93971 4.9758 8.53979
upperback 3.07349 6.82504 -2.51708
thorax 2.33019 3.62799 -7.46115
lowerneck -13.6415 -6.4571 2.1764
upperneck -0.720781 -9.30002 5.36225
head 2.27469 -4.5274 0.775419
rclavicle -1.799e-014 9.54166e-015
rhumerus 67.0469 3.32898 -31.1706
rradius 27.6113
rwrist -10.7061
rhand -7.01717 -5.54077
rfingers 7.12502
rthumb 18.8543 -34.647
lclavicle -1.799e-014 9.54166e-015
lhumerus -21.3284 -14.871 85.992
lradius 10.5633
lwrist 11.0645
lhand -11.2043 -5.33609
lfingers 7.12502
lthumb 14.8237 24.1137
rfemur -0.0691119 5.27413 25.3872
rtibia 27.7153
rfoot -12.7062 -9.63831
rtoes -12.5096
lfemur 2.15578 5.07245 -13.1428
ltibia 24.5866
lfoot -13.6667 0.911286
ltoes -13.4607
83
root -22.0194 17.598 -0.099858 142.146 -76.3323 -147.482
lowerback 3.93678 5.04923 8.49957
upperback 3.06701 6.92264 -2.60466
thorax 2.35069 3.67847 -7.52869
lowerneck -13.6419 -6.62086 2.16629
upperneck -0.838291 -9.52118 5.52495
head 2.24814 -4.63776 0.816931
rclavicle 5.6753e-014 5.08889e-014
rhumerus 66.8975 3.30887 -29.9168
rradius 26.9633
rwrist -11.5454
rhand -6.22929 -6.10534
rfingers 7.12502
rthumb 19.6119 -35.1361
lclavicle 5.6753e-014 5.08889e-014
lhumerus -21.3669 -14.869 85.822
lradius 10.3014
lwrist 10.7017
lhand -11.03 -5.17417
lfingers 7.12502
lthumb 14.9916 24.2632
rfemur 0.0112544 5.18723 25.4115
rtibia 27.6926
rfoot -12.709 -9.8452
rtoes -12.5169
lfemur 2.11474 5.07253 -13.1059
ltibia 24.6437
lfoot -13.6484 0.639602
ltoes -13.6163
84
root -22.0278 17.5969 -0.0976174 141.394 -76.5676 -146.734
lowerback 3.93346 5.13138 8.45936
upperback 3.07164 7.03118 -2.69342
thorax 2.38567 3.7354 -7.59638
lowerneck -13.6672 -6.77992 2.15497
upperneck -0.966974 -9.73685 5.69259
head 2.22304 -4.74556 0.859838
rclavicle 6.44062e-014 2.22639e-014
rhumerus 66.6619 3.28218 -28.7549
rradius 26.4283
rwrist -12.2948
rhand -5.4688 -6.67108
rfingers 7.12502
rthumb 20.3429 -35.6256
lclavicle 6.44062e-014 2.22639e-014
lhumerus -21.3827 -15.008 85.6872
lradius 10.0291
lwrist 10.457
lhand -10.8769 -5.08075
lfingers 7.12502
lthumb 15.1391 24.3455
rfemur 0.0921857 5.09465 25.4296
rtibia 27.6712
rfoot -12.7315 -10.0253
rtoes -12.5588
lfemur 2.07773 5.04082 -13.0773
ltibia 24.6958
lfoot -13.6247 0.403868
ltoes -13.7339
85
root -22.0358 17.5961 -0.0953438 140.621 -76.8096 -145.959
lowerback 3.94322 5.20803 8.4253
upperback 3.05915 7.13443 -2.79162
thorax 2.39658 3.78845 -7.68002
lowerneck -13.6531 -6.94463 2.15792
upperneck -1.11719 -9.9586 5.84745
head 2.18247 -4.85837 0.897885
rclavicle -6.95746e-015 -2.70347e-014
rhumerus 66.3563 3.28164 -27.6985
rradius 25.9766
rwrist -13.0019
rhand -4.66596 -7.15793
rfingers 7.12502
rthumb 21.1143 -36.0283
lclavicle -6.95746e-015 -2.70347e-014
lhumerus -21.5027 -15.2517 85.6052
lradius 9.8834
lwrist 10.3291
lhand -10.7788 -4.96303
lfingers 7.12502
lthumb 15.2335 24.4561
rfemur 0.15885 4.99054 25.4393
rtibia 27.6507
rfoot -12.7473 -10.2112
rtoes -12.544
lfemur 2.02701 5.03583 -13.0527
ltibia 24.7494
lfoot -13.5942 0.143446
ltoes -13.8461
86
root -22.0438 17.5956 -0.0934674 139.806 -77.037 -145.149
lowerback 3.96981 5.28293 8.36579
upperback 3.03161 7.23628 -2.85391
thorax 2.37361 3.83746 -7.71417
lowerneck -13.6126 -7.11074 2.09675
upperneck -1.23327 -10.1711 5.9992
head 2.15264 -4.9652 0.946313
rclavicle -3.62782e-014 4.77083e-015
rhumerus 65.9865 3.36343 -26.5633
rradius 25.6706
rwrist -13.9188
rhand -3.82583 -7.65048
rfingers 7.12502
rthumb 21.9212 -36.4286
lclavicle -3.62782e-014 4.77083e-015
lhumerus -21.6675 -15.4699 85.5464
lradius 9.76505
lwrist 10.2007
lhand -10.6447 -4.84691
lfingers 7.12502
lthumb 15.3627 24.5624
rfemur 0.241015 4.89802 25.4621
rtibia 27.6259
rfoot -12.7656 -10.4022
rtoes -12.582
lfemur 1.98951 4.95935 -13.031
ltibia 24.8072
lfoot -13.5967 -0.0482104
ltoes -13.9587
87
root -22.0513 17.5955 -0.0911967 139.01 -77.2574 -144.348
lowerback 3.98609 5.36798 8.32517
upperback 3.02071 7.35063 -2.9356
thorax 2.38192 3.89549 -7.7769
lowerneck -13.6014 -7.2766 2.08623
upperneck -1.3875 -10.3905 6.13568
head 2.11172 -5.07766 0.980947
rclavicle -7.23576e-014 3.97569e-014
rhumerus 65.5173 3.46351 -25.2456
rradius 25.5412
rwrist -15.132
rhand -3.09813 -8.20148
rfingers 7.12502
rthumb 22.6198 -36.8961
lclavicle -7.23576e-014 3.97569e-014
lhumerus -21.8399 -15.7149 85.4722
lradius 9.76894
lwrist 10.0866
lhand -10.5183 -4.71381
lfingers 7.12502
lthumb 15.4845 24.6861
rfemur 0.302625 4.80168 25.4769
rtibia 27.6032
rfoot -12.7854 -10.5845
rtoes -12.6334
lfemur 1.93691 4.97405 -12.9985
ltibia 24.8613
lfoot -13.5671 -0.312502
ltoes -14.1366
88
root -22.0585 17.5943 -0.0891625 138.148 -77.4527 -143.495
lowerback 4.01375 5.44603 8.29039
upperback 3.0131 7.45628 -3.00039
thorax 2.38418 3.94876 -7.82629
lowerneck -13.5785 -7.42545 2.0735
upperneck -1.53815 -10.5862 6.27025
head 2.06992 -5.17847 1.01727
rclavicle 6.65929e-014 -5.40694e-014
rhumerus 65.012 3.61821 -23.8706
rradius 25.5565
rwrist -16.4986
rhand -2.43392 -8.80643
rfingers 7.12502
rthumb 23.2572 -37.4219
lclavicle 6.65929e-014 -5.40694e-014
lhumerus -22.0332 -15.9273 85.3908
lradius 9.81048
lwrist 9.98613
lhand -10.3958 -4.60332
lfingers 7.12502
lthumb 15.6025 24.7874
rfemur 0.385445 4.74318 25.521
rtibia 27.5828
rfoot -12.7912 -10.7847
rtoes -12.6358
lfemur 1.90936 4.90453 -12.9618
ltibia 24.9124
lfoot -13.5674 -0.490807
ltoes -14.2325
89
root -22.0654 17.5936 -0.0867634 137.393 -77.6739 -142.75
lowerback 4.0403 5.5119 8.20284
upperback 3.00847 7.54363 -3.06513
thorax 2.3792 3.99121 -7.84655
lowerneck -13.5819 -7.56692 2.04979
upperneck -1.66652 -10.772 6.39743
head 2.0407 -5.27322 1.05215
rclavicle -8.41853e-014 1.90833e-014
rhumerus 64.8866 3.52685 -23.7463
rradius 24.7503
rwrist -16.6699
rhand -1.69082 -8.91015
rfingers 7.12502
rthumb 23.9699 -37.4338
lclavicle -8.41853e-014 1.90833e-014
lhumerus -22.2696 -16.0884 85.3256
lradius 9.91955
lwrist 9.92627
lhand -10.3124 -4.55079
lfingers 7.12502
lthumb 15.6828 24.8336
rfemur 0.45383 4.61221 25.5047
rtibia 27.563
rfoot -12.7876 -10.9355
rtoes -12.8029
lfemur 1.87223 4.91171 -12.9583
ltibia 24.9642
lfoot -13.5533 -0.739291
ltoes -14.3802
90
root -22.0716 17.5928 -0.0838653 136.644 -77.8648 -142.006
lowerback 4.05973 5.5812 8.14707
upperback 3.00758 7.63583 -3.1419
thorax 2.38941 4.03794 -7.89609
lowerneck -13.5625 -7.70799 2.08134
upperneck -1.8338 -10.9622 6.50504
head 1.98983 -5.37336 1.07354
rclavicle 5.47652e-014 -4.45278e-014
rhumerus 64.6941 3.40761 -23.7265
rradius 24.0761
rwrist -16.843
rhand -0.947838 -9.05898
rfingers 7.12502
rthumb 24.6822 -37.4871
lclavicle 5.47652e-014 -4.45278e-014
lhumerus -22.5069 -16.2601 85.1995
lradius 10.0949
lwrist 9.90497
lhand -10.2046 -4.51299
lfingers 7.12502
lthumb 15.7867 24.8633
rfemur 0.513889 4.4989 25.4972
rtibia 27.5472
rfoot -12.8069 -11.0758
rtoes -12.8531
lfemur 1.83815 4.83514 -12.9618
ltibia 25.0103
lfoot -13.5449 -0.883312
ltoes -14.4906
91
root -22.0772 17.5925 -0.0813323 135.869 -78.0398 -141.227
lowerback 4.10527 5.6459 8.08532
upperback 2.98487 7.72427 -3.21395
thorax 2.35978 4.0801 -7.94186
lowerneck -13.5627 -7.82712 2.13902
upperneck -1.95419 -11.1292 6.59393
head 1.95498 -5.46029 1.08454
rclavicle -9.72057e-014 4.77083e-014
rhumerus 64.426 3.31962 -23.6953
rradius 23.5709
rwrist -17.0852
rhand -0.0952695 -9.26015
rfingers 7.12502
rthumb 25.4991 -37.574
lclavicle -9.72057e-014 4.77083e-014
lhumerus -22.82 -16.6824 85.1857
lradius 10.3063
lwrist 10.2007
lhand -10.1588 -4.48067
lfingers 7.12502
lthumb 15.8307 24.8921
rfemur 0.554093 4.39976 25.5051
rtibia 27.538
rfoot -12.7991 -11.2043
rtoes -12.8858
lfemur 1.79629 4.80124 -12.9473
ltibia 25.0464
lfoot -13.5319 -1.05761
ltoes -14.6375
